<svg width="48" height="48" viewBox="0 0 48 48" fill="none" xmlns="http://www.w3.org/2000/svg">
<mask id="mask0_1037_6856" style="mask-type:alpha" maskUnits="userSpaceOnUse" x="0" y="0" width="48" height="48">
<rect width="48" height="48" fill="#282B26"/>
</mask>
<g mask="url(#mask0_1037_6856)">
<path d="M8 40C6.9 40 5.95833 39.6083 5.175 38.825C4.39167 38.0417 4 37.1 4 36V12C4 10.9 4.39167 9.95833 5.175 9.175C5.95833 8.39167 6.9 8 8 8H40C41.1 8 42.0417 8.39167 42.825 9.175C43.6083 9.95833 44 10.9 44 12V36C44 37.1 43.6083 38.0417 42.825 38.825C42.0417 39.6083 41.1 40 40 40H8ZM40 16L25.05 25.35C24.8833 25.45 24.7083 25.525 24.525 25.575C24.3417 25.625 24.1667 25.65 24 25.65C23.8333 25.65 23.6583 25.625 23.475 25.575C23.2917 25.525 23.1167 25.45 22.95 25.35L8 16V36H40V16ZM24 22L40 12H8L24 22ZM8 16.5V13.55V13.6V13.575V16.5Z" fill="#282B26"/>
</g>
</svg>
