<?xml version="1.0" encoding="UTF-8"?>
<!DOCTYPE svg PUBLIC "-//W3C//DTD SVG 1.1//EN" "http://www.w3.org/Graphics/SVG/1.1/DTD/svg11.dtd">
<svg xmlns="http://www.w3.org/2000/svg" version="1.1" width="1440px" height="41px" style="shape-rendering:geometricPrecision; text-rendering:geometricPrecision; image-rendering:optimizeQuality; fill-rule:evenodd; clip-rule:evenodd" xmlns:xlink="http://www.w3.org/1999/xlink">
<g><path style="opacity:0.997" fill="#f0e76c" d="M 1165.5,-0.5 C 1256.5,-0.5 1347.5,-0.5 1438.5,-0.5C 1438.5,0.166667 1438.83,0.5 1439.5,0.5C 1439.5,3.83333 1439.5,7.16667 1439.5,10.5C 1438.25,17.8332 1436.41,25.1666 1434,32.5C 1432.17,34.3333 1430.33,36.1667 1428.5,38C 1208,39.0656 987.669,39.8989 767.5,40.5C 512.167,40.5 256.833,40.5 1.5,40.5C 1.06795,39.2905 0.40128,38.2905 -0.5,37.5C -0.5,36.1667 -0.5,34.8333 -0.5,33.5C 0.166667,33.5 0.5,33.1667 0.5,32.5C 2.6545,30.3826 3.6545,27.716 3.5,24.5C 3.30698,20.4338 3.64032,16.4338 4.5,12.5C 5.90632,12.0269 6.57298,11.0269 6.5,9.5C 7.22648,6.71215 8.89315,4.71215 11.5,3.5C 63.7914,2.50888 116.125,2.17554 168.5,2.5C 501.001,2.00585 833.334,1.00585 1165.5,-0.5 Z"/></g>
<!-- <g><path style="opacity:0.732" fill="#9d9847" d="M 831.5,-0.5 C 942.833,-0.5 1054.17,-0.5 1165.5,-0.5C 833.334,1.00585 501.001,2.00585 168.5,2.5C 168.5,2.16667 168.5,1.83333 168.5,1.5C 389.667,1.18017 610.667,0.513498 831.5,-0.5 Z"/></g> -->
<!-- <g><path style="opacity:0.385" fill="#635f2d" d="M 168.5,1.5 C 168.5,1.83333 168.5,2.16667 168.5,2.5C 116.125,2.17554 63.7914,2.50888 11.5,3.5C 11.6107,2.88258 11.944,2.38258 12.5,2C 64.4989,1.50001 116.499,1.33334 168.5,1.5 Z"/></g> -->
<g><path style="opacity:0.063" fill="#423f20" d="M 6.5,9.5 C 6.57298,11.0269 5.90632,12.0269 4.5,12.5C 4.42702,10.9731 5.09368,9.97306 6.5,9.5 Z"/></g>
<!-- <g><path style="opacity:0.741" fill="#787437" d="M 3.5,24.5 C 3.6545,27.716 2.6545,30.3826 0.5,32.5C 1.12904,29.6027 2.12904,26.936 3.5,24.5 Z"/></g> -->
</svg>
