<?xml version="1.0" standalone="no"?>
<!DOCTYPE svg PUBLIC "-//W3C//DTD SVG 20010904//EN"
 "http://www.w3.org/TR/2001/REC-SVG-20010904/DTD/svg10.dtd">
<svg version="1.0" xmlns="http://www.w3.org/2000/svg"
 width="659.000000pt" height="659.000000pt" viewBox="0 0 659.000000 659.000000"
 preserveAspectRatio="xMidYMid meet">

<g transform="translate(0.000000,659.000000) scale(0.100000,-0.100000)"
fill="#000000" stroke="none">
<path d="M3295 6038 c-33 -5 -78 -13 -100 -19 -22 -6 -58 -14 -80 -19 -22 -5
-60 -14 -85 -20 -25 -6 -62 -13 -82 -14 -20 -2 -48 -11 -62 -20 -14 -9 -33
-16 -43 -16 -10 0 -56 -32 -101 -71 -62 -52 -89 -68 -103 -64 -15 5 -45 -16
-127 -92 -117 -107 -163 -143 -186 -143 -8 0 -22 -20 -31 -47 -29 -83 -48
-123 -62 -134 -7 -7 -21 -27 -29 -45 -9 -19 -22 -34 -29 -34 -7 0 -16 -15 -19
-34 -4 -19 -20 -49 -36 -66 -17 -18 -30 -38 -30 -45 0 -7 -9 -33 -20 -58 -17
-39 -26 -47 -55 -53 -19 -3 -42 -3 -51 0 -9 4 -22 0 -28 -8 -13 -17 -53 -22
-78 -12 -18 8 -48 -13 -48 -32 0 -15 -55 -34 -87 -30 -20 2 -28 -1 -28 -12 0
-15 -77 -60 -103 -60 -7 0 -17 -11 -22 -25 -5 -14 -16 -25 -24 -25 -7 0 -40
-25 -72 -55 -33 -30 -62 -55 -66 -55 -4 0 -29 -21 -55 -48 -27 -26 -65 -56
-85 -67 -28 -14 -36 -24 -32 -37 4 -14 0 -18 -24 -18 -25 0 -32 -6 -48 -45
-10 -25 -22 -45 -26 -45 -4 0 -23 -24 -42 -54 -19 -30 -44 -60 -55 -66 -12 -6
-21 -21 -21 -33 0 -28 -9 -41 -37 -56 -21 -11 -21 -13 -8 -46 14 -32 14 -36
-9 -60 -14 -15 -27 -44 -31 -66 -4 -22 -16 -48 -27 -59 -11 -10 -17 -23 -14
-29 7 -11 -37 -115 -53 -125 -5 -4 -13 -31 -16 -61 -4 -30 -13 -59 -20 -65 -9
-7 -12 -23 -8 -46 4 -22 2 -34 -6 -34 -6 0 -11 -9 -11 -19 0 -11 -5 -23 -10
-26 -7 -4 -7 -13 0 -24 6 -12 5 -22 -2 -29 -17 -17 -31 -92 -30 -155 1 -52 -1
-57 -18 -52 -27 8 -34 -11 -17 -48 23 -49 29 -77 19 -77 -6 0 -13 8 -16 17 -4
10 -10 13 -16 7 -6 -6 -6 -21 2 -41 10 -26 9 -34 -5 -48 -10 -9 -15 -20 -12
-25 3 -5 1 -11 -5 -15 -13 -8 -13 -52 0 -60 13 -8 13 -162 0 -170 -7 -4 -10
-53 -8 -128 1 -71 -3 -130 -9 -142 -5 -11 -11 -49 -12 -84 -1 -34 -7 -72 -14
-83 -16 -26 14 -49 54 -41 28 5 29 5 23 -28 -4 -19 -8 -36 -10 -37 -1 -2 2
-17 8 -33 8 -22 13 -27 23 -19 8 7 16 5 27 -8 21 -23 32 -62 19 -62 -6 0 -11
-7 -11 -15 0 -8 -5 -15 -12 -15 -6 0 -3 -8 7 -20 13 -14 16 -28 11 -51 -5 -26
-3 -29 7 -20 17 14 27 4 27 -26 0 -24 -15 -32 -23 -10 -2 6 -7 9 -11 6 -4 -4
-2 -25 4 -48 12 -45 1 -81 -25 -81 -7 0 -25 -4 -40 -10 -19 -7 -23 -13 -15
-22 6 -7 34 -45 63 -83 400 -539 521 -673 792 -875 431 -323 849 -535 1250
-636 80 -20 134 -26 275 -31 455 -14 778 64 1340 327 392 183 728 394 925 583
l70 67 -65 36 c-36 20 -81 49 -100 64 -62 49 -223 143 -290 169 -61 24 -216
107 -320 172 -58 36 -175 89 -195 89 -9 0 -36 14 -60 30 -50 35 -163 90 -183
90 -28 0 -3 -27 64 -67 95 -57 117 -90 111 -168 -9 -127 -111 -310 -239 -431
-159 -151 -311 -224 -541 -263 -223 -38 -410 -36 -558 5 -30 9 -71 20 -92 25
-78 19 -198 94 -169 105 6 3 12 18 12 32 1 44 22 62 73 62 25 0 49 -5 52 -10
3 -6 17 -10 31 -10 14 0 33 -4 43 -9 44 -24 156 54 144 99 -6 21 -4 22 30 16
20 -4 44 -3 54 3 10 5 30 14 44 19 15 6 34 25 43 43 9 18 15 33 14 33 -32 11
-43 27 -40 60 3 30 -2 41 -29 65 -29 27 -32 36 -36 103 -5 72 -4 73 23 86 15
6 36 12 47 12 13 0 17 5 12 19 -4 15 5 24 50 45 30 15 55 34 55 42 0 18 62 46
83 38 8 -3 22 2 31 11 18 18 40 11 32 -11 -3 -8 -2 -14 3 -14 12 0 34 57 27
69 -4 5 -2 12 4 16 5 3 10 -1 10 -9 0 -21 13 -20 41 3 17 14 33 17 62 13 31
-4 39 -2 35 9 -3 8 -12 13 -22 11 -9 -2 -16 2 -16 8 0 17 26 23 49 11 26 -14
67 4 78 34 10 28 78 88 126 110 20 9 37 21 37 26 0 4 14 23 31 41 17 18 37 47
46 63 9 17 29 47 45 67 15 20 38 60 50 90 12 29 34 71 50 93 35 52 154 328
162 380 12 75 27 220 30 293 4 84 14 101 50 84 37 -16 40 -2 6 27 -26 22 -31
34 -32 76 0 28 0 55 2 60 1 6 2 26 1 45 l-2 35 -20 -50 c-12 -27 -29 -99 -40
-160 -12 -72 -24 -112 -34 -118 -8 -4 -15 -15 -15 -24 0 -18 -18 -79 -31 -104
-4 -9 -10 -34 -14 -55 -15 -94 -51 -200 -70 -208 -8 -3 -15 -12 -15 -21 0 -19
-5 -19 -35 1 -25 16 -45 12 -45 -9 0 -13 -52 -40 -79 -41 -8 -1 -16 -8 -19
-16 -10 -32 -22 -39 -48 -28 -13 6 -24 15 -24 20 0 4 -8 8 -19 8 -32 0 -31 43
1 91 23 34 28 53 28 98 -1 88 -23 121 -100 153 -80 33 -80 33 -80 8 0 -25 -12
-25 -35 0 -10 11 -22 17 -27 14 -5 -3 -19 3 -31 14 -14 13 -43 23 -79 27 -57
7 -74 20 -43 32 13 4 45 52 45 66 0 19 -228 25 -257 7 -17 -11 -27 -9 -66 14
-57 34 -69 70 -37 114 19 25 23 47 27 143 4 102 7 116 30 143 20 24 24 37 19
65 -3 20 -6 42 -5 49 5 80 -3 166 -23 260 -9 40 -9 55 0 61 22 13 7 58 -32 94
-21 20 -44 37 -50 37 -6 0 -35 21 -64 46 -40 35 -52 52 -52 74 0 16 -5 32 -10
35 -6 4 -17 22 -25 42 -15 36 -13 47 20 78 5 6 20 25 33 43 19 27 21 36 11 48
-10 12 -8 17 7 29 16 12 17 17 7 34 -17 27 -16 31 3 31 13 0 14 3 5 14 -17 20
-4 62 31 96 16 17 25 30 20 30 -6 0 -22 -13 -35 -30 -30 -35 -43 -38 -52 -10
-7 23 -33 27 -41 5 -4 -8 -10 -12 -15 -9 -16 10 50 82 81 89 37 8 40 13 44 68
2 27 12 54 25 68 44 50 51 59 51 72 0 7 -5 18 -12 25 -8 8 -5 14 15 23 26 12
50 56 52 94 1 19 7 20 100 18 102 -2 163 -11 225 -34 151 -54 198 -74 222 -90
14 -10 32 -19 40 -19 8 0 36 -22 63 -50 27 -27 57 -50 67 -50 10 0 23 -9 30
-20 7 -11 19 -20 26 -20 7 0 25 -9 40 -20 18 -13 44 -21 75 -22 37 0 49 -5 62
-24 20 -30 45 -106 39 -116 -3 -4 9 -40 25 -80 19 -45 34 -107 41 -162 6 -50
15 -110 20 -135 6 -26 14 -91 20 -146 6 -55 14 -122 19 -150 5 -27 12 -94 16
-147 4 -54 10 -98 15 -98 4 0 11 23 14 52 4 28 15 65 24 82 9 17 19 47 22 66
4 30 9 35 31 35 38 1 112 36 100 48 -6 6 -21 5 -42 -2 -40 -14 -45 -9 -30 26
13 33 8 189 -11 308 -14 89 -15 222 -4 363 20 259 20 321 1 375 -8 23 -15 55
-15 71 0 44 -53 146 -99 191 -23 21 -41 43 -41 47 0 21 -64 93 -106 119 -37
24 -45 34 -41 52 3 12 -4 42 -16 67 -20 40 -28 47 -82 65 -70 24 -111 49 -144
88 -32 38 -126 107 -145 107 -8 0 -18 5 -22 11 -5 8 -33 9 -98 3 -132 -12
-204 -7 -234 16 -27 22 -88 24 -197 8z m-335 -2098 c0 -5 -4 -10 -10 -10 -5 0
-10 5 -10 10 0 6 5 10 10 10 6 0 10 -4 10 -10z m458 -828 c34 -7 23 -32 -22
-47 -49 -17 -66 -10 -66 25 0 29 20 43 50 33 8 -3 25 -8 38 -11z m348 -311 c3
-14 10 -36 15 -49 18 -44 11 -93 -18 -127 -16 -18 -36 -42 -46 -54 -11 -14
-20 -47 -24 -87 -6 -64 -18 -88 -33 -64 -12 19 -39 4 -46 -26 -6 -24 -10 -26
-46 -20 -47 8 -68 -5 -68 -40 0 -24 -10 -31 -24 -16 -4 4 -20 7 -34 7 -31 0
-62 49 -43 68 6 6 11 17 11 25 0 7 14 33 31 57 17 24 28 48 25 53 -3 6 -1 12
5 14 8 3 5 19 -9 49 -26 58 -43 72 -76 63 -32 -8 -34 8 -6 36 18 18 61 33 169
60 19 5 46 18 60 30 74 59 147 70 157 21z m-326 -31 c-19 -13 -30 -13 -30 0 0
6 10 10 23 10 18 0 19 -2 7 -10z m27 -522 c-3 -8 -6 -5 -6 6 -1 11 2 17 5 13
3 -3 4 -12 1 -19z m-2647 -99 c0 -5 -4 -9 -10 -9 -5 0 -10 7 -10 16 0 8 5 12
10 9 6 -3 10 -10 10 -16z"/>
<path d="M3184 4949 c-3 -6 -1 -16 5 -22 9 -9 14 -8 21 3 9 15 4 30 -10 30 -5
0 -12 -5 -16 -11z"/>
<path d="M3080 4820 c0 -5 7 -10 16 -10 8 0 12 5 9 10 -3 6 -10 10 -16 10 -5
0 -9 -4 -9 -10z"/>
<path d="M3705 4271 c-67 -8 -141 -38 -166 -67 -19 -22 -27 -47 -39 -124 -5
-30 -12 -67 -15 -81 -6 -24 -3 -27 39 -39 38 -10 46 -17 46 -37 0 -13 7 -26
15 -29 22 -9 19 -16 -20 -43 -19 -13 -35 -27 -35 -32 0 -16 51 -42 118 -61 66
-18 67 -18 80 1 12 17 22 18 97 13 99 -6 112 7 38 39 -26 11 -51 25 -54 31 -8
13 32 48 54 48 9 0 19 5 23 11 12 20 197 -6 229 -33 18 -16 91 -9 108 10 24
27 22 31 -28 52 -25 11 -60 30 -78 44 -38 28 -114 56 -217 81 -41 10 -86 25
-99 33 -23 16 -23 16 30 33 30 10 70 18 89 18 41 1 258 -68 287 -92 17 -13 25
10 27 75 l1 51 -55 18 c-30 9 -73 26 -95 37 -36 18 -128 33 -275 46 -25 2 -72
1 -105 -3z"/>
<path d="M4612 4021 c-47 -44 -51 -60 -21 -87 18 -16 20 -27 17 -72 -3 -29 -1
-55 2 -57 10 -6 46 92 64 169 23 97 5 110 -62 47z"/>
<path d="M4486 3814 c-11 -28 -6 -51 18 -94 19 -34 22 -48 15 -74 -5 -17 -9
-32 -9 -33 0 -10 40 0 50 12 16 20 6 91 -20 133 -11 18 -20 41 -20 52 0 24
-25 27 -34 4z"/>
<path d="M3722 3293 c15 -15 31 -24 34 -20 10 10 -26 47 -45 47 -11 0 -8 -7
11 -27z"/>
<path d="M610 2724 c0 -8 5 -12 10 -9 6 3 10 10 10 16 0 5 -4 9 -10 9 -5 0
-10 -7 -10 -16z"/>
<path d="M716 2131 c-4 -7 -5 -15 -2 -18 9 -9 19 4 14 18 -4 11 -6 11 -12 0z"/>
</g>
</svg>
