<svg width="455" height="455" viewBox="0 0 455 455" fill="none" xmlns="http://www.w3.org/2000/svg">
<rect x="1" y="0.560547" width="453" height="452.951" rx="226.476" fill="#F9F9F9"/>
<rect x="1" y="0.560547" width="453" height="452.951" rx="226.476" stroke="#CECECE"/>
<path d="M225.354 28.4509L225.306 48.4304L234.799 48.4529L234.276 52.1529L220.774 52.1208L220.83 28.4401L225.354 28.4509Z" fill="#282B26"/>
<path d="M423.002 192.305L403.283 195.52L404.811 204.889L401.075 204.978L398.902 191.651L422.274 187.84L423.002 192.305Z" fill="#282B26"/>
<path d="M185.284 413.192C184.08 412.922 183.17 412.284 182.553 411.279C181.931 410.296 181.756 409.202 182.026 407.999C182.297 406.795 182.924 405.882 183.907 405.26C184.89 404.638 185.983 404.463 187.187 404.733C188.39 405.004 189.303 405.631 189.925 406.614C190.542 407.619 190.715 408.723 190.444 409.927C190.174 411.131 189.547 412.044 188.564 412.666C187.581 413.288 186.488 413.463 185.284 413.192Z" fill="#282B26"/>
<path d="M381.817 101.827L378.81 103.861L374.709 99.2532L359.708 112.605L356.678 109.201L371.679 95.8486L367.441 91.0873L370.128 88.6949L381.817 101.827Z" fill="#282B26"/>
<path d="M196.906 30.5942L197.148 34.2163L191.101 35.4377L195.077 55.1224L190.61 56.0249L186.634 36.3401L180.385 37.6022L179.673 34.0751L196.906 30.5942Z" fill="#282B26"/>
<path d="M142.018 47.5418L143.292 50.9413L137.852 53.85L147.321 71.5595L143.302 73.7088L133.832 55.9993L128.211 59.005L126.515 55.8318L142.018 47.5418Z" fill="#282B26"/>
<path d="M149.064 54.7247L144.705 46.5007L148.552 44.7778L151.817 53.492L149.064 54.7247Z" fill="#282B26"/>
<path d="M407.016 142.077L385.393 151.732L383.549 147.601L405.172 137.947L407.016 142.077ZM412.437 154.219L399.303 151.113L391.079 164.468L388.886 159.555L397.024 146.764L410.439 149.744L412.437 154.219Z" fill="#282B26"/>
<path d="M214.257 52.5439L212.211 47.2475L204.407 48.0784L203.523 53.6869L198.854 54.184L203.673 29.8562L209.228 29.2648L219.028 52.0359L214.257 52.5439ZM204.931 44.5763L210.928 43.9377L206.732 33.0114L204.931 44.5763Z" fill="#282B26"/>
<path d="M159.612 39.8353C161.178 39.262 162.623 38.9887 163.947 39.0152C165.27 39.0417 166.605 39.3317 167.951 39.8852L166.743 43.0645C165.705 42.6899 164.724 42.5017 163.799 42.4997C162.895 42.4899 161.982 42.6538 161.059 42.9915C160.03 43.3684 159.279 43.9107 158.808 44.6182C158.351 45.2965 158.276 46.054 158.582 46.8908C158.786 47.4486 159.073 47.8667 159.442 48.1451C159.833 48.4156 160.409 48.5939 161.171 48.6802C161.932 48.7664 163.017 48.771 164.424 48.6939C166.863 48.5794 168.819 48.8369 170.29 49.4662C171.775 50.0663 172.874 51.3425 173.589 53.2949C174.076 54.6251 174.164 55.9308 173.855 57.2119C173.567 58.4852 172.896 59.6431 171.842 60.6857C170.788 61.7283 169.392 62.5676 167.654 63.2037C165.959 63.824 164.338 64.1134 162.79 64.0717C161.256 64.0008 159.833 63.67 158.522 63.0793L159.815 59.8325C160.94 60.2478 162.035 60.4798 163.099 60.5283C164.155 60.5554 165.241 60.3647 166.356 59.9564C167.579 59.5088 168.46 58.8579 168.999 58.0038C169.538 57.1497 169.615 56.197 169.23 55.1457C168.995 54.502 168.674 54.0235 168.267 53.7101C167.852 53.3752 167.275 53.1608 166.535 53.0667C165.787 52.9511 164.757 52.9269 163.443 52.9941C160.816 53.1284 158.788 52.873 157.36 52.228C155.932 51.5829 154.912 50.4237 154.299 48.7502C153.852 47.5273 153.781 46.3367 154.087 45.1786C154.393 44.0204 155.02 42.9758 155.969 42.0447C156.939 41.1057 158.153 40.3693 159.612 39.8353Z" fill="#282B26"/>
<path d="M410.205 171.642C410.564 172.822 410.459 173.928 409.89 174.961C409.342 175.988 408.478 176.68 407.298 177.039C406.117 177.398 405.014 177.304 403.988 176.756C402.962 176.208 402.269 175.344 401.91 174.164C401.551 172.984 401.646 171.88 402.193 170.854C402.763 169.821 403.638 169.126 404.818 168.767C405.998 168.408 407.102 168.502 408.128 169.05C409.154 169.597 409.846 170.461 410.205 171.642Z" fill="#282B26"/>
<path d="M100.622 74.2841L113.196 89.8106L120.573 83.8362L122.503 87.036L112.01 95.5338L97.1065 77.1311L100.622 74.2841Z" fill="#282B26"/>
<path d="M244.272 29.1084L241.756 52.6551L237.258 52.1743L239.774 28.6277L244.272 29.1084ZM257.494 30.5215L248.21 40.3169L255.625 54.1373L250.275 53.5655L243.304 40.1028L252.621 30.0007L257.494 30.5215Z" fill="#282B26"/>
<path d="M271.478 41.2073C272.679 41.4898 273.583 42.1366 274.19 43.1478C274.803 44.1367 274.968 45.2317 274.685 46.4326C274.403 47.6336 273.767 48.5402 272.778 49.1526C271.789 49.7649 270.694 49.9298 269.493 49.6474C268.292 49.3649 267.386 48.7292 266.773 47.7402C266.166 46.7291 266.004 45.623 266.286 44.422C266.569 43.2211 267.204 42.3144 268.193 41.7021C269.182 41.0898 270.277 40.9248 271.478 41.2073Z" fill="#282B26"/>
<path d="M295.776 40.5222L288.65 59.1876L297.518 62.5736L295.718 65.8479L283.103 61.0318L291.55 38.9087L295.776 40.5222Z" fill="#282B26"/>
<path d="M74.3193 353.594L77.3071 351.532L81.4511 356.101L96.3268 342.61L99.3889 345.986L84.5131 359.477L88.7953 364.199L86.1299 366.616L74.3193 353.594Z" fill="#282B26"/>
<path d="M321.252 51.8637L319.332 54.6609L311.5 50.7849L308.567 56.7129L315.385 60.0873L313.896 63.0974L307.077 59.723L303.991 65.9581L312.377 70.1077L310.872 73.1485L298.432 66.9925L308.935 45.7685L321.252 51.8637Z" fill="#282B26"/>
<path d="M84.2758 327.447L80.7761 331.918L85.4888 338.193L90.7582 336.079L93.5776 339.833L70.2173 348.162L66.8629 343.695L81.3947 323.61L84.2758 327.447ZM82.2134 339.539L78.5914 334.716L71.3593 343.918L82.2134 339.539Z" fill="#282B26"/>
<path d="M333.352 395.056L331.863 392.007L339.094 387.101L335.38 381.628L329.085 385.899L327.199 383.12L333.495 378.848L329.588 373.092L321.847 378.345L319.942 375.538L331.427 367.744L344.723 387.34L333.352 395.056Z" fill="#282B26"/>
<path d="M339.639 62.9415L337.334 65.7464L332.092 62.4947L321.506 79.5602L317.633 77.1575L328.219 60.092L322.802 56.7318L324.699 53.674L339.639 62.9415Z" fill="#282B26"/>
<path d="M425.999 220.029L422.616 219.776L422.027 211.057L415.428 211.502L415.94 219.093L412.589 219.319L412.077 211.728L405.136 212.196L405.766 221.531L402.381 221.759L401.447 207.911L425.074 206.318L425.999 220.029Z" fill="#282B26"/>
<path d="M242.351 401.301L244.447 406.578L252.243 405.673L253.074 400.056L257.738 399.515L253.149 423.887L247.601 424.531L237.585 401.854L242.351 401.301ZM251.753 409.18L245.762 409.875L250.061 420.761L251.753 409.18Z" fill="#282B26"/>
<path d="M336.987 72.6605L341.921 64.7682L345.339 67.2347L339.432 74.4251L336.987 72.6605Z" fill="#282B26"/>
<path d="M425.699 241.463L422.115 240.887L422.281 234.72L402.206 234.179L402.329 229.623L422.404 230.164L422.576 223.792L426.173 223.889L425.699 241.463Z" fill="#282B26"/>
<path d="M135.368 402.999L137.261 400.183L145.13 403.985L148.007 398.029L141.157 394.719L142.617 391.695L149.468 395.005L152.494 388.741L144.07 384.671L145.546 381.616L158.043 387.653L147.742 408.976L135.368 402.999Z" fill="#282B26"/>
<path d="M231.44 425.508L231.305 405.529L221.813 405.593L222.302 401.889L235.804 401.798L235.964 425.478L231.44 425.508Z" fill="#282B26"/>
<path d="M297.135 413.487C295.574 414.076 294.132 414.363 292.808 414.349C291.485 414.335 290.147 414.058 288.796 413.518L289.974 410.327C291.014 410.692 291.997 410.87 292.923 410.863C293.826 410.865 294.738 410.692 295.657 410.345C296.683 409.958 297.428 409.409 297.893 408.697C298.343 408.014 298.411 407.256 298.097 406.422C297.888 405.866 297.597 405.451 297.225 405.176C296.831 404.91 296.253 404.737 295.491 404.658C294.729 404.579 293.644 404.585 292.238 404.676C289.8 404.813 287.842 404.575 286.365 403.96C284.874 403.374 283.762 402.108 283.029 400.163C282.529 398.837 282.428 397.533 282.725 396.249C283.001 394.973 283.661 393.808 284.705 392.756C285.749 391.703 287.136 390.85 288.868 390.197C290.557 389.561 292.176 389.256 293.724 389.283C295.259 389.339 296.685 389.656 298.001 390.234L296.739 393.493C295.61 393.089 294.513 392.867 293.449 392.829C292.393 392.812 291.309 393.013 290.197 393.432C288.979 393.891 288.104 394.551 287.573 395.41C287.043 396.269 286.975 397.223 287.37 398.27C287.611 398.912 287.937 399.387 288.347 399.697C288.765 400.027 289.344 400.236 290.085 400.323C290.834 400.432 291.864 400.446 293.177 400.366C295.803 400.206 297.833 400.442 299.267 401.074C300.702 401.705 301.733 402.854 302.362 404.522C302.821 405.74 302.903 406.93 302.608 408.091C302.314 409.252 301.696 410.303 300.757 411.243C299.796 412.191 298.588 412.939 297.135 413.487Z" fill="#282B26"/>
<path d="M355.106 74.2813C356.387 75.3483 357.349 76.4607 357.99 77.6188C358.632 78.7768 359.051 80.0768 359.248 81.5188L355.891 82.0693C355.695 80.9841 355.365 80.0409 354.902 79.2397C354.457 78.4531 353.857 77.7455 353.102 77.117C352.259 76.4155 351.414 76.0386 350.565 75.9865C349.749 75.9313 349.056 76.2462 348.486 76.9311C348.106 77.3876 347.888 77.8455 347.833 78.3048C347.795 78.7788 347.93 79.3666 348.238 80.0685C348.545 80.7704 349.085 81.7105 349.858 82.889C351.182 84.9417 351.941 86.7622 352.135 88.3505C352.361 89.9358 351.809 91.5275 350.479 93.1255C349.573 94.2142 348.488 94.9461 347.224 95.3213C345.978 95.7111 344.64 95.7119 343.209 95.3237C341.779 94.9354 340.352 94.1494 338.93 92.9655C337.543 91.8108 336.478 90.5536 335.738 89.1938C335.029 87.8311 334.601 86.4345 334.454 85.0042L337.911 84.4931C338.117 85.6748 338.465 86.7379 338.957 87.6825C339.464 88.6095 340.174 89.453 341.087 90.213C342.088 91.0462 343.093 91.4814 344.102 91.5189C345.111 91.5563 345.974 91.1448 346.69 90.2844C347.129 89.7576 347.382 89.2396 347.449 88.7306C347.53 88.204 347.426 87.5971 347.136 86.9098C346.861 86.205 346.364 85.3014 345.647 84.199C344.212 81.9942 343.415 80.1123 343.257 78.5532C343.098 76.9942 343.588 75.5298 344.728 74.1601C345.561 73.1592 346.556 72.5005 347.711 72.1839C348.866 71.8673 350.085 71.8856 351.366 72.2388C352.665 72.6066 353.912 73.2874 355.106 74.2813Z" fill="#282B26"/>
<path d="M371.62 127.884L375.161 123.446L370.507 117.127L365.218 119.192L362.434 115.411L385.871 107.301L389.184 111.799L374.465 131.747L371.62 127.884ZM373.795 115.812L377.372 120.669L384.69 111.534L373.795 115.812Z" fill="#282B26"/>
<path d="M123.188 57.9317L124.648 60.994L117.371 65.8328L121.033 71.3404L127.369 67.1278L129.228 69.9245L122.893 74.1371L126.745 79.9301L134.536 74.7498L136.414 77.575L124.857 85.2601L111.745 65.5409L123.188 57.9317Z" fill="#282B26"/>
<path d="M160.963 414.105L167.91 395.372L159.009 392.072L160.778 388.78L173.438 393.475L165.205 415.678L160.963 414.105Z" fill="#282B26"/>
<path d="M413.328 297.504L410.059 295.926L411.984 290.065L392.904 283.799L394.326 279.469L413.406 285.734L415.394 279.678L418.813 280.801L413.328 297.504Z" fill="#282B26"/>
<path d="M398.034 125.336L380.75 135.358L385.511 143.571L382.051 144.982L375.279 133.301L395.765 121.423L398.034 125.336Z" fill="#282B26"/>
<path d="M415.969 244.03L425.273 244.308L424.868 248.503L415.68 247.031L415.969 244.03Z" fill="#282B26"/>
<path d="M212.488 425.022L214.791 401.454L219.293 401.893L216.99 425.462L212.488 425.022ZM199.254 423.729L208.449 413.85L200.909 400.097L206.264 400.621L213.357 414.019L204.132 424.206L199.254 423.729Z" fill="#282B26"/>
<path d="M116.867 392.094L119.145 389.268L124.418 392.47L134.843 375.306L138.738 377.672L128.313 394.836L133.761 398.145L131.893 401.221L116.867 392.094Z" fill="#282B26"/>
<path d="M401.087 323.355L383.757 313.412L379.033 321.645L376.078 319.357L382.798 307.646L403.338 319.431L401.087 323.355Z" fill="#282B26"/>
<path d="M423.706 260.541C423.43 262.186 422.954 263.577 422.277 264.714C421.6 265.852 420.688 266.869 419.542 267.766L417.375 265.144C418.213 264.427 418.862 263.667 419.321 262.864C419.776 262.083 420.084 261.208 420.247 260.239C420.428 259.158 420.327 258.237 419.945 257.478C419.581 256.746 418.96 256.306 418.081 256.158C417.495 256.06 416.99 256.103 416.565 256.287C416.137 256.493 415.697 256.906 415.246 257.525C414.795 258.145 414.255 259.085 413.627 260.347C412.521 262.524 411.331 264.097 410.057 265.065C408.801 266.059 407.148 266.385 405.098 266.041C403.701 265.807 402.522 265.239 401.561 264.337C400.597 263.457 399.921 262.302 399.536 260.87C399.15 259.439 399.11 257.811 399.416 255.986C399.714 254.205 400.264 252.653 401.065 251.328C401.884 250.029 402.875 248.955 404.036 248.107L406.22 250.836C405.303 251.609 404.561 252.446 403.993 253.347C403.447 254.252 403.076 255.29 402.88 256.462C402.665 257.746 402.796 258.833 403.272 259.724C403.748 260.615 404.538 261.152 405.643 261.337C406.319 261.45 406.893 261.408 407.367 261.209C407.863 261.014 408.334 260.618 408.782 260.021C409.252 259.428 409.782 258.544 410.373 257.369C411.554 255.019 412.778 253.382 414.044 252.459C415.311 251.536 416.823 251.222 418.581 251.516C419.865 251.732 420.935 252.258 421.791 253.097C422.646 253.935 423.245 254.996 423.585 256.281C423.922 257.589 423.962 259.008 423.706 260.541Z" fill="#282B26"/>
<path d="M119.423 382.347L114.563 390.285L111.121 387.851L116.961 380.606L119.423 382.347Z" fill="#282B26"/>
<path d="M101.288 380.896C99.9959 379.841 99.024 378.737 98.3719 377.585C97.7198 376.433 97.2886 375.137 97.0784 373.697L100.429 373.115C100.636 374.199 100.975 375.139 101.445 375.936C101.897 376.718 102.504 377.42 103.265 378.041C104.114 378.735 104.963 379.104 105.812 379.148C106.629 379.196 107.319 378.875 107.882 378.184C108.258 377.724 108.471 377.264 108.523 376.805C108.556 376.33 108.415 375.744 108.101 375.045C107.787 374.346 107.238 373.411 106.454 372.24C105.112 370.199 104.336 368.386 104.127 366.799C103.886 365.216 104.424 363.62 105.739 362.009C106.635 360.912 107.713 360.17 108.973 359.783C110.215 359.382 111.553 359.369 112.987 359.743C114.421 360.118 115.855 360.891 117.289 362.062C118.687 363.203 119.762 364.45 120.516 365.803C121.237 367.159 121.678 368.552 121.838 369.981L118.386 370.524C118.17 369.344 117.811 368.284 117.31 367.345C116.795 366.422 116.077 365.585 115.157 364.834C114.148 364.01 113.139 363.584 112.13 363.556C111.12 363.528 110.261 363.948 109.553 364.815C109.12 365.346 108.872 365.866 108.81 366.376C108.733 366.903 108.843 367.509 109.139 368.193C109.421 368.896 109.926 369.795 110.654 370.89C112.109 373.082 112.923 374.956 113.096 376.514C113.27 378.071 112.793 379.54 111.666 380.92C110.842 381.929 109.854 382.597 108.702 382.924C107.549 383.252 106.331 383.245 105.046 382.903C103.744 382.548 102.491 381.878 101.288 380.896Z" fill="#282B26"/>
<path d="M367.161 357.057C366.321 357.96 365.311 358.425 364.132 358.452C362.97 358.495 361.937 358.096 361.033 357.256C360.13 356.416 359.657 355.415 359.614 354.252C359.572 353.09 359.971 352.057 360.811 351.153C361.651 350.25 362.652 349.777 363.814 349.734C364.993 349.707 366.035 350.114 366.938 350.954C367.842 351.794 368.315 352.795 368.357 353.958C368.4 355.12 368.001 356.153 367.161 357.057Z" fill="#282B26"/>
<path d="M385.653 301.781L391.268 302.621L394.404 295.427L389.967 291.885L391.843 287.581L410.606 303.799L408.374 308.919L383.735 306.179L385.653 301.781ZM397.19 297.613L394.779 303.142L406.351 304.897L397.19 297.613Z" fill="#282B26"/>
<path d="M391.121 339.472L371.928 325.601L374.577 321.935L393.77 335.806L391.121 339.472ZM383.332 350.249L379.436 337.328L363.758 336.906L366.909 332.545L382.056 333.175L386.203 346.277L383.332 350.249Z" fill="#282B26"/>
<path d="M355.759 378.502L343.04 363.094L335.719 369.137L333.759 365.955L344.173 357.36L359.247 375.623L355.759 378.502Z" fill="#282B26"/>
<path d="M314.633 405.627L313.327 402.24L318.739 399.28L309.102 381.66L313.101 379.473L322.738 397.092L328.33 394.034L330.057 397.19L314.633 405.627Z" fill="#282B26"/>
<path d="M307.526 398.501L311.963 406.683L308.133 408.442L304.785 399.759L307.526 398.501Z" fill="#282B26"/>
<path d="M259.89 423.096L259.613 419.476L265.648 418.198L261.487 398.552L265.946 397.607L270.107 417.254L276.343 415.933L277.089 419.453L259.89 423.096Z" fill="#282B26"/>
<path d="M57.8916 330.254L75.0805 320.069L70.2416 311.902L73.6878 310.458L80.5706 322.074L60.1975 334.146L57.8916 330.254Z" fill="#282B26"/>
<path d="M48.7576 313.611L70.288 303.751L72.1715 307.864L50.6411 317.724L48.7576 313.611ZM43.2212 301.522L56.384 304.502L64.4804 291.07L66.7207 295.962L58.7049 308.83L45.2616 305.978L43.2212 301.522Z" fill="#282B26"/>
<path d="M45.2904 284.095C44.9201 282.919 45.0146 281.811 45.574 280.773C46.1117 279.741 46.9689 279.04 48.1457 278.67C49.3225 278.3 50.4267 278.383 51.4581 278.921C52.4896 279.459 53.1905 280.316 53.5609 281.493C53.9312 282.669 53.8476 283.774 53.31 284.805C52.7505 285.843 51.8824 286.548 50.7056 286.918C49.5288 287.288 48.4246 287.205 47.3932 286.667C46.3617 286.129 45.6608 285.272 45.2904 284.095Z" fill="#282B26"/>
<path d="M32.2882 263.518L51.9761 260.117L50.3601 250.762L54.0948 250.639L56.3934 263.944L33.0583 267.975L32.2882 263.518Z" fill="#282B26"/>
<path d="M29.03 235.846L32.4154 236.067L33.0862 244.78L39.6809 244.272L39.0969 236.686L42.4455 236.429L43.0295 244.014L49.9658 243.48L49.2476 234.152L52.6304 233.892L53.6958 247.73L30.0849 249.548L29.03 235.846Z" fill="#282B26"/>
<path d="M29.1318 214.425L32.7212 214.968L32.6137 221.136L52.693 221.486L52.6135 226.043L32.5342 225.693L32.423 232.066L28.8252 232.003L29.1318 214.425Z" fill="#282B26"/>
<path d="M38.8327 211.749L29.5269 211.559L29.892 207.36L39.0939 208.745L38.8327 211.749Z" fill="#282B26"/>
<path d="M30.9484 195.284C31.2084 193.637 31.6715 192.241 32.3378 191.097C33.004 189.953 33.906 188.928 35.0438 188.02L37.2354 190.621C36.404 191.346 35.7627 192.112 35.3114 192.92C34.8637 193.705 34.5633 194.583 34.4101 195.553C34.2392 196.636 34.3485 197.556 34.7382 198.311C35.1088 199.04 35.7342 199.474 36.6143 199.613C37.2011 199.706 37.7059 199.658 38.1287 199.471C38.5551 199.26 38.991 198.843 39.4363 198.22C39.8817 197.596 40.4125 196.651 41.0289 195.383C42.1143 193.195 43.2894 191.611 44.5543 190.631C45.8002 189.625 47.4499 189.284 49.5036 189.608C50.9028 189.829 52.087 190.386 53.0563 191.279C54.0291 192.15 54.7151 193.299 55.1143 194.726C55.5135 196.154 55.5689 197.782 55.2804 199.61C54.999 201.393 54.4641 202.951 53.6755 204.283C52.868 205.59 51.8876 206.673 50.7343 207.531L48.5249 204.823C49.4346 204.042 50.1692 203.198 50.7286 202.292C51.2654 201.382 51.6263 200.34 51.8115 199.167C52.0145 197.88 51.8737 196.794 51.389 195.908C50.9044 195.022 50.1091 194.492 49.0033 194.317C48.3263 194.21 47.752 194.259 47.2805 194.462C46.7864 194.661 46.3185 195.062 45.8767 195.663C45.4123 196.26 44.8904 197.149 44.3108 198.33C43.1518 200.691 41.9434 202.339 40.6856 203.274C39.4279 204.209 37.9189 204.537 36.1586 204.26C34.8722 204.057 33.7973 203.54 32.9337 202.71C32.0702 201.88 31.462 200.824 31.1091 199.542C30.7598 198.238 30.7062 196.819 30.9484 195.284Z" fill="#282B26"/>
<path d="M40.9894 158.192L44.273 159.74L42.4029 165.619L61.5402 171.707L60.1585 176.05L41.0212 169.962L39.0888 176.036L35.6598 174.946L40.9894 158.192Z" fill="#282B26"/>
<path d="M68.6028 153.71L62.9797 152.923L59.9124 160.146L64.3835 163.646L62.5485 167.968L43.6312 151.93L45.8145 146.788L70.478 149.293L68.6028 153.71ZM57.1063 157.987L59.4637 152.435L47.8754 150.791L57.1063 157.987Z" fill="#282B26"/>
<path d="M52.9679 132.269L70.3905 142.048L75.0369 133.77L78.0128 136.03L71.4038 147.805L50.7537 136.214L52.9679 132.269Z" fill="#282B26"/>
<path d="M62.7851 116.051L82.1073 129.741L79.4921 133.432L60.1699 119.742L62.7851 116.051ZM70.4724 105.201L74.4895 118.086L90.1711 118.361L87.0605 122.751L71.908 122.263L67.6392 109.2L70.4724 105.201Z" fill="#282B26"/>
<path d="M86.5816 98.2451C87.4131 97.3338 88.4183 96.8591 89.5971 96.8213C90.7591 96.7681 91.7957 97.1572 92.7071 97.9887C93.6185 98.8203 94.1008 99.817 94.1541 100.979C94.2073 102.141 93.8182 103.178 92.9866 104.089C92.1551 105 91.1584 105.483 89.9964 105.536C88.8176 105.574 87.7725 105.177 86.8611 104.345C85.9497 103.514 85.4674 102.517 85.4141 101.355C85.3609 100.193 85.75 99.1565 86.5816 98.2451Z" fill="#282B26"/>
<circle cx="227.582" cy="227.037" r="125.082" fill="#F0E76C" stroke="#282B26" stroke-width="4"/>
<path d="M296.099 240.507C296.099 278.025 265.684 308.44 228.166 308.44C190.647 308.44 160.232 278.025 160.232 240.507" stroke="#282B26" stroke-width="4" stroke-linecap="round"/>
<path d="M202.398 199.514C202.398 183.989 192.959 171.403 181.315 171.403C169.671 171.403 160.232 183.989 160.232 199.514" stroke="#282B26" stroke-width="4" stroke-linecap="round"/>
<path d="M296.101 199.514C296.101 183.989 286.662 171.403 275.018 171.403C263.375 171.403 253.935 183.989 253.935 199.514" stroke="#282B26" stroke-width="4" stroke-linecap="round"/>
</svg>
